# Blender 3.3.0
# www.blender.org
mtllib body.mtl
o Cube
v -0.000949 0.000950 1.416376
v -0.000949 0.000950 -1.425255
v 1.000000 0.000000 0.001494
v -1.000000 0.003798 0.001494
v -0.007596 -1.000000 0.001494
v 0.003798 1.000000 0.001494
vn 0.6304 -0.6351 0.4464
vn -0.6369 -0.6297 -0.4447
vn 0.6345 0.6321 -0.4447
vn -0.6303 0.6352 0.4464
vn 0.6314 -0.6362 -0.4434
vn 0.6335 0.6311 0.4477
vn -0.6359 -0.6287 0.4477
vn -0.6314 0.6362 -0.4434
vt 0.375000 0.374050
vt 0.625000 0.375475
vt 0.500000 0.500000
vt 0.500475 0.250000
vt 0.375000 0.374050
vt 0.625000 0.375475
vt 0.500000 0.500000
vt 0.500475 0.250000
vt 0.500000 0.500000
vt 0.500475 0.250000
vt 0.375000 0.374050
vt 0.625000 0.375475
s 0
usemtl Material
f 5/11/1 3/9/1 1/1/1
f 5/11/2 4/10/2 2/5/2
f 6/12/3 3/9/3 2/6/3
f 6/12/4 4/10/4 1/2/4
f 3/9/5 5/11/5 2/7/5
f 3/9/6 6/12/6 1/3/6
f 4/10/7 5/11/7 1/4/7
f 4/10/8 6/12/8 2/8/8
