# Blender 3.3.0
# www.blender.org
mtllib bunker.mtl
o Cube
v 0.405143 0.351799 -0.334289
v 1.000000 -0.351799 -0.652289
v -0.000119 0.351799 0.315562
v -0.000198 -0.351799 0.951561
v -0.405221 0.351799 -0.334289
v -1.000000 -0.351799 -0.652289
vn -0.0000 1.0000 -0.0000
vn -0.0000 -1.0000 -0.0000
vn 0.7655 0.4314 0.4774
vn -0.0000 0.4119 -0.9113
vn -0.7656 0.4315 0.4772
vt 0.625000 0.500000
vt 0.375000 0.500000
vt 0.625000 0.750000
vt 0.375000 0.750000
vt 0.875000 0.500000
vt 0.625000 0.250000
vt 0.375000 0.250000
vt 0.125000 0.500000
s 0
usemtl Material.001
f 1/1/1 5/5/1 3/3/1
f 6/8/2 2/2/2 4/4/2
f 2/2/3 1/1/3 3/3/3 4/4/3
f 6/7/4 5/6/4 1/1/4 2/2/4
f 4/4/5 3/3/5 5/6/5 6/8/5
