# Blender 3.3.0
# www.blender.org
mtllib tower.mtl
o Cube
v 1.000000 1.000000 -0.652289
v 1.000000 -1.000000 -0.652289
v -0.000198 1.000000 0.951561
v -0.000198 -1.000000 0.951561
v -1.000000 1.000000 -0.652289
v -1.000000 -1.000000 -0.652289
vn -0.0000 1.0000 -0.0000
vn -0.0000 -1.0000 -0.0000
vn 0.8485 -0.0000 0.5292
vn -0.0000 -0.0000 -1.0000
vn -0.8486 -0.0000 0.5290
vt 0.625000 0.500000
vt 0.375000 0.500000
vt 0.625000 0.750000
vt 0.375000 0.750000
vt 0.875000 0.500000
vt 0.625000 0.250000
vt 0.375000 0.250000
vt 0.125000 0.500000
s 0
usemtl Material
f 1/1/1 5/5/1 3/3/1
f 6/8/2 2/2/2 4/4/2
f 2/2/3 1/1/3 3/3/3 4/4/3
f 6/7/4 5/6/4 1/1/4 2/2/4
f 4/4/5 3/3/5 5/6/5 6/8/5
